<?xml version="1.0" encoding="utf-8"?>
<!-- Generator: Adobe Illustrator 26.0.2, SVG Export Plug-In . SVG Version: 6.00 Build 0)  -->
<svg version="1.1" id="Warstwa_1" xmlns="http://www.w3.org/2000/svg" xmlns:xlink="http://www.w3.org/1999/xlink" x="0px" y="0px"
	 viewBox="0 0 800 800" style="enable-background:new 0 0 800 800;" xml:space="preserve">
<style type="text/css">
	.st0{fill:#CEE7FD;}
	.st1{fill:#007BFF;}
	.st2{opacity:0.3;}
	.st3{opacity:0.1;}
	.st4{fill:#005BEA;}
	.st5{fill:#FFFFFF;}
	.st6{opacity:0.1;fill:#FFFFFF;}
	.st7{fill:#3199F0;}
	.st8{opacity:0.5;}
</style>
<g>
	<g>
		<path class="st0" d="M618,706.2c-7,4-18.3,4-25.3,0L172.6,463.6c-7-4-7-10.6,0-14.6l139.3-80.5c7-4,18.3-4,25.3,0l420.2,242.6
			c7,4,7,10.6,0,14.6L618,706.2z"/>
		<path class="st1" d="M497.9,609.4L497.9,609.4c-0.1-1.8-1.3-3.7-3.7-5l-106.5-61.5c-4.3-2.5-11-2.8-15.9-0.9l-111.5,43.9
			c-3.1,1.2-5.1,3.2-5.4,5.3c0,0.2,0,0.4,0,0.6l-0.1,0v11.6h0.1c-0.1,2,1.2,3.9,3.6,5.3l142.1,82c2.6,1.5,6.3,2.3,10,2.1
			c3.7-0.2,7.1-1.3,9.2-3.1l76-64.4c1.5-1.3,2.2-2.7,2.1-4.2l0,0V609.4z"/>
		<path class="st2" d="M494.2,604.4l-106.5-61.5c-4.3-2.5-11-2.8-15.9-0.9l-68.9,27.1l145.9,84.3l46.9-39.8
			C499.1,610.7,498.5,606.8,494.2,604.4z"/>
		<path class="st2" d="M497.9,609.4c0,1.4-0.6,2.9-2.1,4.2l-76,64.4c-2.1,1.8-5.5,2.9-9.2,3.1c-3.7,0.2-7.4-0.6-10-2.1l-142-82
			c-2.4-1.4-3.6-3.2-3.6-5.2l-0.1,0v11.6h0.1c-0.1,2,1.2,3.9,3.6,5.3l142.1,82c2.6,1.5,6.3,2.3,10,2.1c3.7-0.2,7.1-1.3,9.2-3.1
			l76-64.4c1.5-1.3,2.2-2.7,2.1-4.2l0,0L497.9,609.4L497.9,609.4z"/>
		<path class="st3" d="M497.9,609.4c0,1.4-0.6,2.9-2.1,4.2l-46.9,39.8l0,11.7l47-39.8c1.5-1.3,2.2-2.7,2.1-4.2l0,0L497.9,609.4
			L497.9,609.4z"/>
		<g>
			<path class="st4" d="M409.4,694.3c-3.6,0-7-0.8-9.6-2.3l-142.1-82c-2.7-1.6-4.2-3.8-4.3-6.1c0-0.1-0.1-0.3-0.1-0.4v-11.6
				c0-0.1,0-0.2,0-0.3c0-0.1,0-0.3,0-0.5c0.4-2.7,2.7-5,6.3-6.5l111.5-43.9c5.5-2.1,12.5-1.7,17.2,1L495,603.1
				c2.6,1.5,4.1,3.6,4.3,5.9c0,0.1,0.1,0.3,0.1,0.4v11.7c0,0.1,0,0.3,0,0.4c-0.1,1.4-0.6,3.2-2.6,4.9l-76,64.4
				c-2.3,2-6,3.3-10.1,3.5C410.2,694.3,409.8,694.3,409.4,694.3z M256.3,603c0,0.1,0.1,0.3,0.1,0.4c-0.1,1.5,1,2.9,2.9,4l142.1,82
				c2.4,1.4,5.8,2.1,9.2,1.9c3.4-0.2,6.5-1.2,8.3-2.8l76-64.4c1.1-0.9,1.6-2,1.6-3c0-0.1,0-0.3,0-0.4v-11c0-0.1,0-0.2,0-0.3
				c0-1.4-1.1-2.7-2.9-3.8L387,544.1c-3.9-2.3-10.1-2.6-14.7-0.8l-111.5,43.9c-2.6,1-4.2,2.6-4.5,4.2l0,0c0,0.1,0,0.2,0,0.3
				c0,0.2,0,0.3-0.1,0.5V603z"/>
		</g>
		<path class="st1" d="M178.4,131.7l-12.6,7.3c0,0,0,0,0,0l0,0l0,0c-2.3,1.3-3.7,4.2-3.7,8.2v300.4c0,8.1,5.7,17.9,12.7,21.9
			l420.2,242.6c3.5,2,6.6,2.2,8.9,0.9l0,0l0.1,0l0,0l12.6-7.3l0,0c2.3-1.3,3.7-4.1,3.7-8.2l0-300.4c0-8.1-5.7-17.9-12.7-21.9
			L187.4,132.6c-3.4-2-6.5-2.2-8.8-1l0,0L178.4,131.7C178.5,131.7,178.5,131.7,178.4,131.7z"/>
		<path class="st2" d="M607.6,375.2L187.4,132.6c-3.4-2-6.5-2.2-8.8-1l0,0l-0.1,0.1c0,0,0,0,0,0l-12.6,7.3c2.3-1.3,5.4-1.1,8.9,0.9
			l420.2,242.6c7,4,12.7,13.9,12.7,21.9l0,300.4c0,4-1.4,6.8-3.7,8.2l12.6-7.3l0,0c2.3-1.3,3.7-4.1,3.7-8.2l0-300.4
			C620.3,389,614.6,379.2,607.6,375.2z"/>
		<path class="st2" d="M586.3,430.2c-4.2-2.4-7.6-0.5-7.6,4.4l0,142.9c0,4.8,3.4,10.7,7.6,13.2l21.3,12.3l0-160.4L586.3,430.2z"/>
		<path class="st2" d="M314,409.3l193.2,111.5c9.3,5.4,16.9,1,16.9-9.7V341.6l-227-131.1l0,169.5C297.1,390.8,304.7,403.9,314,409.3
			z"/>
		<g>
			<path class="st4" d="M600.6,715.4c-2,0-4.2-0.6-6.4-1.9L174,470.9c-7.4-4.3-13.4-14.7-13.4-23.2V147.2c0-4.4,1.6-7.8,4.4-9.4
				c0,0,0,0,0.1,0c0,0,0,0,0,0l12.6-7.3c0,0,0.1,0,0.1,0l0,0c0.1-0.1,0.2-0.1,0.3-0.2c2.8-1.4,6.4-1,10,1.1l420.2,242.6
				c7.4,4.3,13.4,14.7,13.4,23.2l0,300.4c0,4.5-1.6,7.8-4.5,9.5l-12.6,7.3c0,0,0,0-0.1,0c0,0,0,0-0.1,0
				C603.3,715,602,715.4,600.6,715.4z M166.5,140.3c-1.9,1.2-2.9,3.6-2.9,6.9v300.4c0,7.6,5.4,16.9,11.9,20.7l420.2,242.6
				c2.9,1.7,5.5,2,7.4,0.9c0,0,0.1,0,0.1,0c0,0,0,0,0,0l12.6-7.3c0,0,0.1,0,0.1,0c1.9-1.1,2.9-3.5,2.9-6.9l0-300.4
				c0-7.6-5.4-16.9-11.9-20.7L186.7,133.9c-2.9-1.6-5.5-2-7.4-0.9c-0.1,0-0.1,0.1-0.2,0.1c0,0,0,0,0,0l-12.5,7.2
				C166.5,140.3,166.5,140.3,166.5,140.3z"/>
		</g>
		<path class="st5" d="M594.9,682.9L174.8,440.4c-2.8-1.6-5.1-5.5-5.1-8.8v-280c0-3.2,2.3-4.5,5.1-2.9l420.2,242.6
			c2.8,1.6,5.1,5.6,5.1,8.8v280C600,683.2,597.7,684.5,594.9,682.9z"/>
		<path class="st0" d="M373.1,466.4c0,4.8-3.4,6.8-7.6,4.4l-119-68.7c-4.2-2.4-7.6-8.3-7.6-13.2l0-112c0-4.8,3.4-6.8,7.6-4.4
			l119,68.7c4.2,2.4,7.6,8.3,7.6,13.2L373.1,466.4z"/>
		<path class="st0" d="M586.3,430.2c-4.2-2.4-7.6-0.5-7.6,4.4l0,142.9c0,4.8,3.4,10.7,7.6,13.2l13.7,7.9V438.1L586.3,430.2z"/>
		<path class="st0" d="M314,409.3l193.2,111.5c9.3,5.4,16.9,1,16.9-9.7V350.4l-227-131.1l0,160.8C297.1,390.8,304.7,403.9,314,409.3
			z"/>
		<g>
			<path class="st4" d="M597.2,685.1c-1,0-2-0.3-3-0.9c0,0,0,0,0,0L174,441.6c-3.2-1.9-5.8-6.3-5.8-10v-280c0-2.1,0.8-3.7,2.2-4.5
				c1.4-0.8,3.2-0.7,5,0.4L595.6,390c3.2,1.9,5.8,6.3,5.8,10v280c0,2.1-0.8,3.7-2.2,4.5C598.6,684.9,597.9,685.1,597.2,685.1z
				 M595.6,681.7c0.9,0.5,1.6,0.6,2.1,0.3c0.5-0.3,0.8-1,0.8-2V400c0-2.7-2-6.1-4.3-7.5L174,150c-0.9-0.5-1.6-0.6-2.1-0.4
				c-0.5,0.3-0.8,1-0.8,2v280c0,2.7,2,6.2,4.3,7.5L595.6,681.7z"/>
		</g>
	</g>
	<g>
		<path class="st1" d="M483.6,179L290.4,67.4c-4.7-2.7-8.9-2.9-12-1.2l-5.5,3.2c-3.1,1.7-5,5.5-5,10.9l0,317.2
			c0,10.8,7.6,23.8,16.9,29.2l193.2,111.5c9.3,5.4,16.9,1,16.9-9.7c0,5.4-1.9,9.2-4.9,10.9l5.5-3.2l0,0c3.1-1.7,5.1-5.5,5.1-11
			V208.2C500.5,197.5,492.9,184.4,483.6,179z"/>
		<path class="st2" d="M284.7,70.7L478,182.3c9.3,5.4,16.9,18.5,16.9,29.2v317.2c0,5.4-1.9,9.2-4.9,10.9l5.5-3.2l0,0
			c3.1-1.7,5.1-5.5,5.1-11V208.2c0-10.8-7.6-23.8-16.9-29.2L290.4,67.4c-4.7-2.7-8.9-2.9-12-1.2l-5.6,3.2
			C275.9,67.7,280.1,68,284.7,70.7z"/>
		<path class="st2" d="M358.4,363.2l0,106.2l-73.7-42.6c-9.3-5.4-16.9-18.5-16.9-29.2l0-95.5l83,47.9
			C355,352.5,358.4,358.4,358.4,363.2z M434.7,300.5L350.8,252c-4-2.3-7.3-0.4-7.3,4.2v36.3c0,4.7,3.3,10.3,7.3,12.7l84,48.5
			c4.1,2.3,7.3,0.4,7.3-4.2l0-36.3C442.1,308.5,438.8,302.8,434.7,300.5z M478,182.3L456.7,170l0,75.5c0,4.8,3.4,10.7,7.6,13.2
			l30.6,17.6v-64.8C494.9,200.7,487.3,187.6,478,182.3z"/>
		<g>
			<path class="st4" d="M485.8,542.2c-2.4,0-5.3-0.6-8.6-2.5L284,428.1c-9.7-5.6-17.6-19.3-17.6-30.5l0-317.2c0-5.8,2-10.1,5.8-12.2
				l5.5-3.2c3.7-2.1,8.4-1.7,13.4,1.2l193.2,111.6l0,0c9.7,5.6,17.6,19.3,17.6,30.5v317.2c0,5.7-2,10-5.6,12.1
				c-0.1,0.1-0.1,0.1-0.2,0.2l-4.1,2.4c0,0.1-0.1,0.2-0.2,0.2C491.3,541,489,542.2,485.8,542.2z M282.8,66.6c-1.4,0-2.6,0.3-3.7,0.9
				l-5.5,3.2c-2.8,1.6-4.3,5-4.3,9.7l0,317.2c0,10.3,7.2,22.8,16.2,28l193.2,111.5c4.8,2.8,8.4,2.2,10,1.7c0.1-0.2,0.3-0.3,0.5-0.4
				l5.2-3c0.1-0.1,0.2-0.1,0.3-0.2c2.8-1.5,4.4-5,4.4-9.7V208.2c0-10.3-7.3-22.8-16.2-27.9c0,0,0,0,0,0L289.6,68.7
				C287.2,67.3,284.9,66.6,282.8,66.6z"/>
		</g>
	</g>
	<g>
		<g>
			<path class="st5" d="M314.2,310.1c0,4.7,3.3,10.3,7.3,12.7l84,48.5c4,2.3,7.3,0.4,7.3-4.2l0-36.3c0-4.7-3.3-10.4-7.3-12.7
				l-83.9-48.5c-4-2.3-7.3-0.4-7.3,4.2V310.1z"/>
			<path class="st4" d="M408.7,373.8c-1.3,0-2.6-0.4-4-1.2l-84-48.5c-4.5-2.6-8.1-8.7-8.1-14v-36.3c0-2.8,1-4.9,2.9-6
				c1.9-1.1,4.2-0.9,6.7,0.5l83.9,48.5c4.5,2.6,8.1,8.8,8.1,14l0,36.3c0,2.8-1,4.9-2.9,6C410.6,373.6,409.7,373.8,408.7,373.8z
				 M318.2,270c-0.4,0-0.8,0.1-1.2,0.3c-0.9,0.5-1.4,1.8-1.4,3.5v36.3c0,4.1,3,9.4,6.6,11.4l83.9,48.5c1.5,0.8,2.8,1,3.7,0.5
				c0.9-0.5,1.4-1.8,1.4-3.5l0-36.3c0-4.1-3-9.4-6.6-11.4l-83.9-48.5C319.9,270.3,319,270,318.2,270z"/>
		</g>
		<g>
			<path class="st0" d="M398.5,332.5c0,1.1-0.8,1.6-1.8,1l-66.5-38.4c-1-0.6-1.8-1.9-1.8-3l0,0c0-1.1,0.8-1.6,1.8-1l66.5,38.4
				C397.7,330.1,398.5,331.4,398.5,332.5L398.5,332.5z M386.3,341.7c0,1.1-0.8,1.6-1.8,1l-54.3-31.3c-1-0.6-1.8-1.9-1.8-3l0,0
				c0-1.1,0.8-1.6,1.8-1l54.3,31.3C385.5,339.2,386.3,340.6,386.3,341.7L386.3,341.7z M374,326.6c0-1.1-0.8-2.5-1.8-3l-42.1-24.3
				c-1-0.6-1.8-0.1-1.8,1l0,0c0,1.1,0.8,2.5,1.8,3l42.1,24.3C373.3,328.1,374.1,327.7,374,326.6L374,326.6z"/>
		</g>
	</g>
	<g>
		<g>
			<path class="st5" d="M583.5,258.6c4.2,2.4,7.6,8.3,7.6,13.2l0,85.8c0,4.8-3.4,6.8-7.6,4.4L435,276.2c-4.2-2.4-7.6-8.3-7.6-13.2
				l0-85.8c0-4.8,3.4-6.8,7.6-4.4L583.5,258.6z"/>
			<path class="st4" d="M586.9,364.4c-1.3,0-2.7-0.4-4.1-1.2l-148.5-85.7c-4.7-2.7-8.3-9-8.3-14.4l0-85.8c0-2.9,1.1-5.1,3-6.2
				c1.9-1.1,4.3-0.9,6.8,0.5l148.5,85.7l0,0c4.7,2.7,8.3,9,8.3,14.4l0,85.7c0,2.9-1,5.1-3,6.2C588.8,364.2,587.9,364.4,586.9,364.4z
				 M431.6,173.3c-0.5,0-0.9,0.1-1.2,0.3c-0.9,0.5-1.5,1.9-1.5,3.6l0,85.8c0,4.3,3.2,9.7,6.9,11.9l148.5,85.7c1.5,0.9,3,1.1,3.9,0.5
				c0.9-0.5,1.5-1.9,1.5-3.6l0-85.8c0-4.3-3.1-9.7-6.9-11.9c0,0,0,0,0,0l-148.5-85.7C433.3,173.6,432.4,173.3,431.6,173.3z"/>
		</g>
		<g>
			<path class="st0" d="M455.2,232.9l-11.2-6.4c-1-0.6-1.8-0.1-1.8,1l0,33.7l0,0c0,1.2,0.8,2.6,1.8,3.2l11.2,6.4
				c1,0.6,1.8,0.1,1.8-1.1l0,0V236C457,234.9,456.2,233.5,455.2,232.9z M475.1,229.8l-11.2-6.5c-1-0.6-1.8-0.1-1.8,1.1l0,48.3l0,0
				c0,1.2,0.8,2.6,1.8,3.1l11.2,6.4c1,0.6,1.8,0.1,1.8-1l0,0v-48.3C476.9,231.7,476.1,230.3,475.1,229.8z M495,270.5l-11.2-6.4
				c-1-0.6-1.8-0.1-1.8,1.1l0,19l0,0c0,1.2,0.8,2.6,1.8,3.2l11.2,6.4c1,0.6,1.8,0.1,1.8-1l0,0l0-19C496.8,272.5,496,271,495,270.5z
				 M514.8,236l-11.2-6.4c-1-0.6-1.8-0.1-1.8,1v65l0,0c0,1.2,0.8,2.6,1.8,3.2l11.2,6.4c1,0.6,1.8,0.1,1.8-1.1l0,0l0-65
				C516.7,238,515.9,236.6,514.8,236z M534.7,278.8l-11.2-6.5c-1-0.6-1.8-0.1-1.8,1v33.7l0,0c0,1.2,0.8,2.6,1.8,3.2l11.2,6.5
				c1,0.6,1.8,0.1,1.8-1.1l0,0V282C536.6,280.8,535.7,279.4,534.7,278.8z M574.5,301.8l-11.2-6.4c-1-0.6-1.8-0.1-1.8,1.1V330l0,0
				c0,1.2,0.8,2.6,1.8,3.2l11.2,6.4c1,0.6,1.8,0.1,1.8-1l0,0l0-33.7C576.3,303.8,575.5,302.3,574.5,301.8z M554.6,275.7l-11.2-6.4
				c-1-0.6-1.8-0.1-1.8,1.1v48.3l0,0c0,1.2,0.8,2.6,1.8,3.2l11.2,6.4c1,0.6,1.8,0.1,1.8-1l0,0l0-48.3
				C556.4,277.7,555.6,276.2,554.6,275.7z"/>
		</g>
	</g>
	<g>
		<g>
			<path class="st5" d="M329.2,492.8c0,4.8-3.4,6.8-7.6,4.4l-119-68.7c-4.2-2.4-7.6-8.3-7.6-13.2l0-112c0-4.8,3.4-6.8,7.6-4.4
				l119,68.7c4.2,2.4,7.6,8.3,7.6,13.2L329.2,492.8z"/>
			<path class="st4" d="M325,499.7c-1.3,0-2.7-0.4-4.1-1.2l-119-68.7c-4.7-2.7-8.3-9-8.3-14.4l0-112c0-2.9,1.1-5.1,3-6.2
				c1.9-1.1,4.3-0.9,6.8,0.5l119,68.7c4.7,2.7,8.3,9,8.3,14.4l0,112c0,2.9-1,5.1-3,6.2C326.9,499.4,325.9,499.7,325,499.7z
				 M199.2,299.4c-0.5,0-0.9,0.1-1.2,0.3c-0.9,0.5-1.5,1.9-1.5,3.6l0,112c0,4.3,3.1,9.7,6.9,11.9l119,68.7c1.5,0.9,3,1.1,3.9,0.5
				c0.9-0.5,1.5-1.9,1.5-3.6v0l0-112c0-4.3-3.1-9.7-6.9-11.9l-119-68.7C200.9,299.6,200,299.4,199.2,299.4z"/>
		</g>
		<g>
			<path class="st0" d="M224.8,354.1l-13.2-7.6c-1-0.6-1.8-0.1-1.8,1l0,15.2l0,0c0,1.2,0.8,2.6,1.8,3.2l13.2,7.6
				c1,0.6,1.8,0.1,1.8-1.1l0,0l0-15.2C226.6,356.1,225.8,354.6,224.8,354.1z M246.7,366.7l-13.2-7.6c-1-0.6-1.8-0.1-1.8,1v15.2l0,0
				c0,1.2,0.8,2.6,1.8,3.2l13.2,7.6c1,0.6,1.8,0.1,1.8-1.1l0,0l0-15.2C248.5,368.7,247.7,367.3,246.7,366.7z M268.6,379.4l-13.2-7.6
				c-1-0.6-1.8-0.1-1.8,1V388l0,0c0,1.2,0.8,2.6,1.8,3.2l13.2,7.6c1,0.6,1.8,0.1,1.8-1.1l0,0v-15.2
				C270.4,381.3,269.6,379.9,268.6,379.4z M224.8,328.8l-13.2-7.6c-1-0.6-1.8-0.1-1.8,1l0,15.2l0,0c0,1.2,0.8,2.6,1.8,3.1l13.2,7.6
				c1,0.6,1.8,0.1,1.8-1l0,0l0-15.2C226.6,330.8,225.8,329.4,224.8,328.8z M268.6,354.1l-13.2-7.6c-1-0.6-1.8-0.1-1.8,1l0,15.2l0,0
				c0,1.2,0.8,2.6,1.8,3.2l13.2,7.6c1,0.6,1.8,0.1,1.8-1l0,0l0-15.2C270.4,356.1,269.6,354.7,268.6,354.1z M246.7,392l-13.2-7.6
				c-1-0.6-1.8-0.1-1.8,1l0,15.2l0,0c0,1.2,0.8,2.6,1.8,3.2l13.2,7.6c1,0.6,1.8,0.1,1.8-1.1l0,0l0-15.2
				C248.5,394,247.7,392.5,246.7,392z M268.6,404.6l-13.2-7.6c-1-0.6-1.8-0.1-1.8,1v15.2l0,0c0,1.2,0.8,2.6,1.8,3.2l13.2,7.6
				c1,0.6,1.8,0.1,1.8-1.1l0,0v-15.2C270.4,406.6,269.6,405.2,268.6,404.6z M224.8,404.6l-13.2-7.6c-1-0.6-1.8-0.1-1.8,1.1l0,15.2
				l0,0c0,1.2,0.8,2.6,1.8,3.2l13.2,7.6c1,0.6,1.8,0.1,1.8-1.1l0,0v-15.2C226.6,406.6,225.8,405.1,224.8,404.6z M246.7,417.2
				l-13.2-7.6c-1-0.6-1.8-0.1-1.8,1l0,15.2l0,0c0,1.2,0.8,2.6,1.8,3.2l13.2,7.6c1,0.6,1.8,0.1,1.8-1.1l0,0l0-15.2
				C248.5,419.2,247.7,417.8,246.7,417.2z M290.5,366.7l-13.2-7.6c-1-0.6-1.8-0.1-1.8,1v15.2l0,0c0,1.2,0.8,2.6,1.8,3.2l13.2,7.6
				c1,0.6,1.8,0.1,1.8-1.1l0,0v-15.2C292.3,368.7,291.5,367.3,290.5,366.7z M290.5,417.2l-13.2-7.6c-1-0.6-1.8-0.1-1.8,1l0,15.2l0,0
				c0,1.2,0.8,2.6,1.8,3.2l13.2,7.6c1,0.6,1.8,0.1,1.8-1l0,0l0-15.2C292.3,419.2,291.5,417.8,290.5,417.2z M290.4,442.5l-13.2-7.6
				c-1-0.6-1.8-0.1-1.8,1v15.2l0,0c0,1.2,0.8,2.6,1.8,3.2l13.2,7.6c1,0.6,1.8,0.1,1.8-1l0,0v-15.2
				C292.3,444.5,291.5,443.1,290.4,442.5z M312.3,404.6l-13.2-7.6c-1-0.6-1.8-0.1-1.8,1v15.2l0,0c0,1.2,0.8,2.6,1.8,3.2l13.2,7.6
				c1,0.6,1.8,0.1,1.8-1.1l0,0l0-15.2C314.2,406.6,313.3,405.2,312.3,404.6z M312.3,379.4l-13.2-7.6c-1-0.6-1.8-0.1-1.8,1l0,15.2
				l0,0c0,1.2,0.8,2.6,1.8,3.2l13.2,7.6c1,0.6,1.8,0.1,1.8-1.1l0,0v-15.2C314.2,381.4,313.3,380,312.3,379.4z M312.3,429.9
				l-13.2-7.6c-1-0.6-1.8-0.1-1.8,1l0,15.2l0,0c0,1.2,0.8,2.6,1.8,3.2l13.2,7.6c1,0.6,1.8,0.1,1.8-1.1l0,0l0-15.2
				C314.2,431.9,313.4,430.5,312.3,429.9z"/>
		</g>
		<g>
			<path class="st1" d="M246.7,341.5l-13.2-7.6c-1-0.6-1.8-0.1-1.8,1l0,15.2l0,0c0,1.2,0.8,2.6,1.8,3.2l13.2,7.6
				c1,0.6,1.8,0.1,1.8-1.1l0,0v-15.2C248.5,343.5,247.7,342.1,246.7,341.5z M224.8,379.3l-13.2-7.6c-1-0.6-1.8-0.1-1.8,1V388l0,0
				c0,1.2,0.8,2.6,1.8,3.2l13.2,7.6c1,0.6,1.8,0.1,1.8-1.1l0,0l0-15.2C226.6,381.3,225.8,379.9,224.8,379.3z M268.6,429.8l-13.2-7.6
				c-1-0.6-1.8-0.1-1.8,1.1l0,15.2l0,0c0,1.2,0.8,2.6,1.8,3.2l13.2,7.6c1,0.6,1.8,0.1,1.8-1l0,0V433
				C270.4,431.8,269.6,430.4,268.6,429.8z M290.5,392l-13.2-7.6c-1-0.6-1.8-0.1-1.8,1l0,15.2l0,0c0,1.2,0.8,2.6,1.8,3.2l13.2,7.6
				c1,0.6,1.8,0.1,1.8-1.1l0,0l0-15.2C292.3,394,291.5,392.6,290.5,392z M312.3,455.1l-13.2-7.6c-1-0.6-1.8-0.1-1.8,1l0,15.2l0,0
				c0,1.2,0.8,2.6,1.8,3.2l13.2,7.6c1,0.6,1.8,0.1,1.8-1.1l0,0l0-15.2C314.2,457.1,313.3,455.7,312.3,455.1z"/>
		</g>
	</g>
	<g>
		<g>
			<path class="st5" d="M381.5,218.2l11.3-6.5l76.9,44.4v88.7l-11.3,6.5L440.6,341v-68.2l-59.1-34.1L381.5,218.2z M381.5,463
				l76.9,44.4l11.2-6.5l0-88.7l-17.8-10.3l-11.2,6.5l0,55.1l-47.8-27.6l-11.2,6.5L381.5,463z M246.1,140l0,88.7l17.8,10.3l11.3-6.5
				l0-55.2L323,205l11.3-6.5l0-20.6l-76.9-44.4L246.1,140z M246.1,384.8l76.9,44.4l11.3-6.5l0-20.5l-59.1-34.1v-68.2l-17.8-10.3
				l-11.3,6.5L246.1,384.8z"/>
		</g>
		<g>
			<path class="st0" d="M334.3,177.9l0,20.6L323,205v-20.6L246.1,140l11.3-6.5L334.3,177.9z M263.9,239l11.3-6.5l0-55.2L323,205
				l-59.1-34.1V239z M275.2,299.9l-17.8-10.3l-11.3,6.5l17.8,10.3l0,68.2l59.1,34.1l0,20.5l11.3-6.5l0-20.5l-59.1-34.1V299.9z
				 M392.7,435.9l-11.2,6.5l59.1,34.1l0-68.2l0,55.1L392.7,435.9z M392.7,211.7l-11.3,6.5l76.9,44.4l0,88.7l11.3-6.5v-88.7
				L392.7,211.7z M440.6,408.4l17.8,10.3v88.7l11.2-6.5l0-88.7l-17.8-10.3L440.6,408.4z"/>
		</g>
		<g>
			<path class="st4" d="M458.4,508.8c-0.3,0-0.5-0.1-0.7-0.2l-76.9-44.4c-0.5-0.3-0.7-0.7-0.7-1.3l0-20.6c0-0.5,0.3-1,0.7-1.3
				l11.2-6.5c0.5-0.3,1-0.3,1.5,0l45.6,26.3l0-52.6c0-0.5,0.3-1,0.7-1.3l11.2-6.5c0.5-0.3,1-0.3,1.5,0l17.8,10.3
				c0.5,0.3,0.7,0.7,0.7,1.3l0,88.7c0,0.5-0.3,1-0.7,1.3l-11.2,6.5C458.9,508.8,458.7,508.8,458.4,508.8z M382.9,462.1l75.5,43.6
				l9.8-5.7l0-87l-16.4-9.4l-9.8,5.7l0,54.3c0,0.5-0.3,1-0.7,1.3c-0.5,0.3-1,0.3-1.5,0l-47.1-27.2l-9.8,5.6L382.9,462.1z M323,430.7
				c-0.3,0-0.5-0.1-0.7-0.2l-76.9-44.4c-0.5-0.3-0.7-0.7-0.7-1.3l0-88.7c0-0.5,0.3-1,0.7-1.3l11.3-6.5c0.5-0.3,1-0.3,1.5,0
				l17.8,10.3c0.5,0.3,0.7,0.7,0.7,1.3v67.3l58.4,33.7c0.5,0.3,0.7,0.7,0.7,1.3l0,20.5c0,0.5-0.3,1-0.7,1.3l-11.3,6.5
				C323.5,430.6,323.3,430.7,323,430.7z M247.6,384l75.5,43.6l9.8-5.6l0-18.9l-58.4-33.7c-0.5-0.3-0.7-0.7-0.7-1.3v-67.3l-16.4-9.4
				l-9.8,5.7L247.6,384z M458.4,352.7c-0.3,0-0.5-0.1-0.7-0.2l-17.8-10.3c-0.5-0.3-0.7-0.7-0.7-1.3v-67.3L380.7,240
				c-0.5-0.3-0.7-0.7-0.7-1.3l0-20.6c0-0.5,0.3-1,0.7-1.3l11.3-6.5c0.5-0.3,1-0.3,1.5,0l76.9,44.4c0.5,0.3,0.7,0.7,0.7,1.3v88.7
				c0,0.5-0.3,1-0.7,1.3l-11.3,6.5C458.9,352.7,458.7,352.7,458.4,352.7z M442,340.1l16.4,9.4l9.8-5.7v-87l-75.5-43.6l-9.8,5.7
				l0,18.9l58.4,33.7c0.5,0.3,0.7,0.7,0.7,1.3V340.1z M263.9,240.5c-0.3,0-0.5-0.1-0.7-0.2L245.4,230c-0.5-0.3-0.7-0.7-0.7-1.3
				l0-88.7c0-0.5,0.3-1,0.7-1.3l11.3-6.5c0.5-0.3,1-0.3,1.5,0l76.9,44.4c0.5,0.3,0.7,0.7,0.7,1.3l0,20.6c0,0.5-0.3,1-0.7,1.3
				l-11.3,6.5c-0.5,0.3-1,0.3-1.5,0l-45.6-26.4l0,52.6c0,0.5-0.3,1-0.7,1.3l-11.3,6.5C264.4,240.4,264.2,240.5,263.9,240.5z
				 M247.6,227.9l16.4,9.4l9.8-5.7l0-54.3c0-0.5,0.3-1,0.7-1.3c0.5-0.3,1-0.3,1.5,0l47.1,27.2l9.8-5.7l0-18.9l-75.5-43.6l-9.8,5.6
				L247.6,227.9z"/>
		</g>
	</g>
	<g>
		<path class="st0" d="M199.1,128.8v46.9c0,4.8-3.4,6.8-7.6,4.4l-40.7-23.5c-4.2-2.4-7.6-8.3-7.6-13.2v-10.2c0-1.9,1.3-2.7,3-1.7
			c0.6,0.3,1.1,0.9,1.6,1.5c1.8,2.5,4,4.6,6.3,6c6.1,3.5,11,0.7,11-6.4c0-7-4.9-15.6-11-19.1c-2.4-1.4-4.5-1.7-6.3-1.3
			c-0.5,0.1-1,0-1.6-0.3c-1.7-1-3-3.3-3-5.2V96.5c0-4.8,3.4-6.8,7.6-4.4l8.8,5.1c1.7,1,3,0.2,3-1.7c0-0.7-0.2-1.4-0.5-2.1
			c-1.3-2.8-2-5.7-2-8.4c0-7,4.9-9.9,11-6.3c6.1,3.5,11,12.1,11,19.1c0,2.7-0.7,4.8-2,6.1c-0.3,0.4-0.5,0.8-0.5,1.5
			c0,1.9,1.4,4.3,3,5.2l8.8,5.1C195.7,118.1,199.1,124,199.1,128.8z"/>
		<g>
			<path class="st4" d="M194.9,182.6c-1.3,0-2.7-0.4-4.1-1.2l-40.7-23.5c-4.7-2.7-8.3-9-8.3-14.4v-10.2c0-1.5,0.6-2.6,1.6-3.2
				c1-0.6,2.3-0.5,3.6,0.2c0.7,0.4,1.4,1,2,1.9c1.8,2.5,3.8,4.4,5.9,5.6c2.5,1.4,4.7,1.7,6.3,0.8c1.6-0.9,2.5-3,2.5-5.9
				c0-6.6-4.6-14.5-10.3-17.8c-1.9-1.1-3.7-1.5-5.3-1.2c0,0-0.1,0-0.1,0c-0.9,0.1-1.7,0-2.5-0.5c-2.1-1.2-3.8-4.1-3.8-6.5V96.5
				c0-2.9,1-5.1,3-6.2c1.9-1.1,4.3-0.9,6.8,0.5l8.8,5.1c0.4,0.2,0.6,0.2,0.7,0.2c0,0,0.1-0.2,0.1-0.7c0-0.4-0.1-0.9-0.4-1.5
				c-1.4-3.1-2.1-6.2-2.1-9c0-3.9,1.4-6.9,4-8.4c2.6-1.5,5.8-1.2,9.3,0.8c6.6,3.8,11.8,12.7,11.8,20.3c0,3-0.8,5.5-2.4,7.1
				c0,0-0.1,0.2-0.1,0.5c0,1.4,1.1,3.2,2.3,3.9l8.8,5.1c4.7,2.7,8.3,9,8.3,14.4v46.9c0,2.9-1,5.1-3,6.2
				C196.8,182.4,195.9,182.6,194.9,182.6z M144.9,132.6C144.9,132.6,144.8,132.6,144.9,132.6c-0.1,0-0.2,0.2-0.2,0.7v10.2
				c0,4.3,3.1,9.7,6.9,11.9l40.7,23.5c1.5,0.9,3,1.1,3.9,0.5c0.9-0.5,1.5-1.9,1.5-3.6v-46.9c0-4.3-3.1-9.7-6.9-11.9l-8.8-5.1
				c-2.1-1.2-3.7-4-3.8-6.5c0-1,0.3-1.8,0.9-2.5c1.1-1.2,1.7-3,1.7-5.2c0-6.5-4.6-14.5-10.3-17.8c-2.5-1.4-4.7-1.7-6.3-0.8
				c-1.6,0.9-2.5,3-2.5,5.9c0,2.4,0.6,5.1,1.9,7.8c0.4,1,0.6,1.9,0.6,2.7c0,1.5-0.6,2.6-1.6,3.2c-1,0.6-2.3,0.5-3.6-0.2l-8.8-5.1
				c-1.5-0.9-3-1.1-3.9-0.5c-0.9,0.5-1.5,1.9-1.5,3.6v10.2c0,1.4,1.1,3.2,2.3,3.9c0.3,0.2,0.4,0.2,0.6,0.2c2.2-0.5,4.8,0,7.3,1.5
				c6.6,3.8,11.8,12.7,11.8,20.3c0,3.9-1.4,6.9-4,8.4c-2.6,1.5-5.8,1.2-9.3-0.8c-2.4-1.4-4.8-3.6-6.8-6.4c-0.4-0.5-0.8-0.9-1.1-1.1
				C145.2,132.6,145,132.6,144.9,132.6z"/>
		</g>
		<g>
			<path class="st5" d="M135,153.5v-10.2c0-1.9,1.4-2.7,3-1.7c0.6,0.3,1.1,0.9,1.6,1.5c1.8,2.5,4,4.6,6.3,6c6.1,3.5,11,0.7,11-6.4
				c0-7-4.9-15.6-11-19.1c-2.3-1.4-4.5-1.7-6.3-1.3c-0.5,0.1-1,0-1.6-0.3c-1.7-1-3-3.3-3-5.2l0-10.2c0-4.8-3.4-10.7-7.6-13.2
				l-8.8-5.1c-1.7-1-3-0.2-3,1.7c0,0.7,0.2,1.4,0.5,2.1c1.3,2.8,2,5.7,2,8.4c0,7-4.9,9.9-11,6.4c-6.1-3.5-11-12.1-11-19.1
				c0-2.7,0.7-4.8,2-6.1c0.3-0.4,0.5-0.8,0.5-1.5c0-1.9-1.3-4.3-3-5.2l-8.8-5.1c-4.2-2.4-7.6-0.5-7.6,4.4v46.9
				c0,4.8,3.4,10.7,7.6,13.2l40.7,23.5C131.6,160.3,135,158.3,135,153.5z"/>
			<path class="st4" d="M130.8,160.4c-1.3,0-2.7-0.4-4.1-1.2l-40.7-23.5c-4.7-2.7-8.3-9-8.3-14.4V74.3c0-2.9,1-5.1,3-6.2
				c1.9-1.1,4.3-0.9,6.8,0.5l8.8,5.1c2.1,1.2,3.8,4,3.8,6.5c0,1-0.3,1.8-0.9,2.5c-1.1,1.2-1.6,2.9-1.6,5.2c0,6.6,4.6,14.5,10.3,17.8
				c2.5,1.4,4.7,1.7,6.3,0.8c1.6-0.9,2.5-3,2.5-5.9c0-2.4-0.6-5.1-1.9-7.8c-0.4-1-0.6-1.9-0.6-2.7c0-1.4,0.6-2.6,1.6-3.2
				c1-0.6,2.3-0.5,3.6,0.2l8.8,5.1c4.7,2.7,8.3,9,8.3,14.4l0,10.2c0,1.4,1.1,3.3,2.3,4c0.3,0.2,0.4,0.2,0.6,0.1
				c2.2-0.5,4.8,0,7.3,1.5c6.6,3.8,11.8,12.7,11.8,20.3c0,3.9-1.4,6.9-4,8.4c-2.6,1.5-5.8,1.2-9.3-0.8c-2.4-1.4-4.8-3.6-6.8-6.4
				c-0.4-0.5-0.8-0.9-1.1-1.1c-0.4-0.2-0.6-0.2-0.7-0.2c0,0-0.2,0.2-0.2,0.7v10.2c0,2.9-1,5.1-3,6.2
				C132.7,160.2,131.7,160.4,130.8,160.4z M83.3,70.4c-0.5,0-0.9,0.1-1.2,0.3c-0.9,0.5-1.5,1.9-1.5,3.6v46.9c0,4.3,3.1,9.7,6.9,11.9
				l40.7,23.5c1.5,0.9,3,1.1,3.9,0.5c0.9-0.5,1.5-1.9,1.5-3.6v-10.2c0-1.5,0.6-2.6,1.6-3.2c1-0.6,2.3-0.5,3.6,0.2
				c0.7,0.4,1.3,1,2,1.9c1.8,2.5,3.8,4.4,5.9,5.6c2.5,1.4,4.7,1.7,6.3,0.8c1.6-0.9,2.5-3,2.5-5.9c0-6.5-4.6-14.5-10.3-17.8
				c-1.9-1.1-3.7-1.5-5.2-1.2c0,0-0.1,0-0.1,0c-0.9,0.1-1.7,0-2.5-0.5c-2.1-1.2-3.7-4-3.7-6.5l0-10.2c0-4.3-3.1-9.7-6.9-11.9
				l-8.8-5.1c-0.4-0.2-0.6-0.2-0.7-0.2c0,0-0.2,0.2-0.1,0.7c0,0.4,0.1,0.9,0.4,1.5c1.4,3.1,2.1,6.2,2.1,9c0,3.9-1.4,6.9-4,8.4
				c-2.6,1.5-5.8,1.2-9.3-0.8c-6.6-3.8-11.8-12.7-11.8-20.4c0-3,0.8-5.4,2.4-7.1c0-0.1,0.1-0.2,0.1-0.5c0-1.4-1.1-3.3-2.3-4
				l-8.8-5.1C85,70.6,84.1,70.4,83.3,70.4z"/>
		</g>
	</g>
	<g>
		<path class="st1" d="M88.3,304.4c0-1.7-1.1-3.4-3.3-4.6c-2.2-1.3-5.1-1.9-8.1-1.9h0c-2.9,0-5.8,0.6-8.1,1.9
			c-2.2,1.3-3.3,3-3.3,4.6h0v0v4.8c0,6.9,2.7,18.7,2.7,27.9c0,9.2-2.7,22-2.7,28.8v4c0,1.7,1.1,3.4,3.3,4.7c2.2,1.3,5.1,1.9,8.1,1.9
			l0,0h0l0,0l0,0c2.9,0,5.8-0.6,8.1-1.9c2.2-1.3,3.3-3,3.3-4.7v-4c0-6.8-2.7-19.5-2.7-28.8c0-9.2,2.7-21,2.7-27.9L88.3,304.4
			L88.3,304.4L88.3,304.4z"/>
		<path class="st2" d="M88.3,304.4c0,1.7-1.1,3.4-3.3,4.7c-2.2,1.3-5.1,1.9-8.1,1.9v65.5l0,0c2.9,0,5.8-0.6,8.1-1.9
			c2.2-1.3,3.3-3,3.3-4.7v-4c0-6.8-2.7-19.5-2.7-28.8c0-9.2,2.7-21,2.7-27.9L88.3,304.4L88.3,304.4L88.3,304.4z"/>
		<path class="st6" d="M68.9,299.7c4.4-2.6,11.7-2.6,16.1,0c4.5,2.6,4.5,6.7,0,9.3c-4.5,2.6-11.7,2.6-16.1,0
			C64.4,306.5,64.4,302.3,68.9,299.7z"/>
		<path class="st4" d="M76.9,297.8c2.9,0,5.8,0.6,8.1,1.9c2.2,1.3,3.3,3,3.3,4.6h0v0v4.8c0,6.9-2.7,18.7-2.7,27.9
			c0,9.2,2.7,22,2.7,28.8v4c0,1.7-1.1,3.4-3.3,4.7c-2.2,1.3-5.1,1.9-8.1,1.9h0c-2.9,0-5.8-0.6-8.1-1.9c-2.2-1.3-3.3-3-3.3-4.7v-4
			c0-6.8,2.7-19.5,2.7-28.8c0-9.2-2.7-21-2.7-27.9v-4.8v0h0c0-1.7,1.1-3.4,3.3-4.6C71.1,298.4,74,297.8,76.9,297.8L76.9,297.8
			L76.9,297.8z M76.9,294.9L76.9,294.9c-3.6,0-6.9,0.8-9.5,2.3c-3,1.7-4.7,4.2-4.8,6.9c0,0.1,0,0.2,0,0.2v4.8
			c0,3.4,0.6,7.8,1.2,12.4c0.7,5.3,1.5,10.8,1.5,15.5c0,4.8-0.8,10.8-1.5,16.2c-0.6,4.8-1.2,9.3-1.2,12.6v4c0,2.8,1.8,5.4,4.8,7.2
			c2.6,1.5,6,2.3,9.5,2.3c3.6,0,6.9-0.8,9.5-2.3c3.1-1.8,4.8-4.4,4.8-7.2v-4c0-3.3-0.6-7.8-1.2-12.6c-0.7-5.3-1.5-11.4-1.5-16.2
			c0-4.8,0.7-10.2,1.5-15.5c0.6-4.6,1.2-9,1.2-12.4v-4.8c0-0.1,0-0.2,0-0.3c-0.1-2.7-1.9-5.2-4.8-6.9
			C83.9,295.7,80.5,294.9,76.9,294.9L76.9,294.9z"/>
		<path class="st7" d="M76.3,276.1c-1.8-1-3.6-2.3-5.3-3.7v32c0,0.9,0.6,1.7,1.7,2.4c1.2,0.7,2.7,1,4.2,1h0l0,0c1.5,0,3-0.3,4.2-1
			c1.2-0.7,1.7-1.5,1.7-2.4v-25.6C80.8,278.3,78.6,277.4,76.3,276.1z"/>
		<path class="st2" d="M76.9,276.4v31.4h0l0,0c1.5,0,3-0.3,4.2-1c1.2-0.7,1.7-1.5,1.7-2.4v-25.6C81,278.3,79,277.5,76.9,276.4z"/>
		<g>
			<path class="st4" d="M76.9,309.3c-1.8,0-3.6-0.4-4.9-1.2c-1.6-0.9-2.5-2.2-2.5-3.7v-32c0-0.6,0.3-1.1,0.8-1.3
				c0.5-0.2,1.1-0.2,1.6,0.2c1.7,1.4,3.4,2.6,5.1,3.5c0,0,0,0,0,0c2.1,1.2,4.2,2.1,6.2,2.6c0.6,0.2,1.1,0.8,1.1,1.4v25.6
				c0,1.5-0.9,2.8-2.5,3.7C80.5,308.8,78.8,309.3,76.9,309.3z M72.5,275.3v29c0,0.4,0.4,0.8,1,1.2c1.8,1,5.2,1,6.9,0
				c0.6-0.4,1-0.8,1-1.2v-24.5c-2-0.6-3.9-1.5-5.9-2.6C74.5,276.7,73.5,276.1,72.5,275.3z"/>
		</g>
		<path class="st5" d="M79.1,209.4c-8.6-5-16.3-5.4-21.9-2.2v0l-10.1,5.8c0,0,0,0,0,0l0,0h0c-5.6,3.2-9.1,10.2-9,20
			C38,253,51.9,277,69,286.8c8.6,4.9,16.3,5.4,21.9,2.1v0l10.1-5.8c5.6-3.2,9.1-10.2,9.1-20.1C110.1,243.3,96.2,219.3,79.1,209.4z"
			/>
		<path class="st0" d="M47.1,213.1c5.6-3.2,13.3-2.8,21.9,2.2c17.1,9.9,31,33.9,30.9,53.6c0,9.9-3.5,16.8-9.1,20v0l10.1-5.8
			c5.6-3.2,9.1-10.2,9.1-20.1c0-19.8-13.9-43.8-30.9-53.6c-8.6-5-16.3-5.4-21.9-2.2v0L47.1,213.1L47.1,213.1z"/>
		<g>
			<path class="st4" d="M82.8,292.5c-4.5,0-9.4-1.5-14.5-4.4c-17.5-10.1-31.7-34.7-31.7-54.9c0-10,3.4-17.6,9.7-21.3
				c0,0,0.1,0,0.1-0.1l10-5.8c0,0,0.1,0,0.1-0.1c6.3-3.7,14.6-2.9,23.4,2.2l0,0c17.5,10.1,31.7,34.7,31.7,54.9
				c0,10.1-3.5,17.7-9.8,21.3l-10.1,5.8c0,0-0.1,0-0.1,0C88.9,291.8,86,292.5,82.8,292.5z M47.8,214.4
				C47.8,214.4,47.8,214.4,47.8,214.4c-5.4,3.1-8.3,9.8-8.3,18.8c0,19.3,13.5,42.8,30.2,52.4c7.8,4.5,15.1,5.3,20.4,2.1
				c0,0,0.1,0,0.1,0l10-5.8c5.4-3.1,8.3-9.8,8.3-18.8c0-19.3-13.5-42.8-30.2-52.4c0,0,0,0,0,0c-7.8-4.5-15-5.3-20.3-2.2
				c0,0-0.1,0-0.1,0.1L47.8,214.4z"/>
		</g>
		<path class="st0" d="M69,281.8c-14.7-8.5-26.6-29.1-26.6-46.1c0-17,11.9-23.9,26.6-15.4c14.7,8.5,26.6,29.1,26.6,46.1
			C95.6,283.4,83.6,290.3,69,281.8z"/>
	</g>
	<g>
		<polygon class="st5" points="163,499.6 195.1,518.1 195.1,537.7 166.1,554.4 134.1,535.9 134.1,516.3 		"/>
		<g class="st8">
			<polygon class="st0" points="166.1,554.4 134.1,535.9 134.1,516.3 166.1,534.8 			"/>
		</g>
		<polygon class="st0" points="195.1,537.7 166.1,554.4 166.1,534.8 195.1,518.1 		"/>
		<g>
			<path class="st4" d="M166.1,555.9c-0.3,0-0.5-0.1-0.7-0.2l-32.1-18.5c-0.5-0.3-0.7-0.7-0.7-1.3v-19.6c0-0.5,0.3-1,0.7-1.3
				l29-16.7c0.5-0.3,1-0.3,1.5,0l32.1,18.5c0.5,0.3,0.7,0.7,0.7,1.3l0,19.6c0,0.5-0.3,1-0.7,1.3l-29,16.7
				C166.6,555.8,166.4,555.9,166.1,555.9z M135.5,535.1l30.6,17.7l27.5-15.9l0-17.9L163,501.3l-27.5,15.9V535.1z"/>
		</g>
	</g>
	<g>
		<path class="st5" d="M470.6,713.7c5.1-5.1,13.3-5.1,18.3,0c5.1,5.1,5.1,13.2,0,18.3c-5.1,5.1-13.2,5.1-18.3,0
			C465.6,726.9,465.6,718.7,470.6,713.7z"/>
		<path class="st0" d="M484.7,727.7c4.3-4.3,4.9-10.9,1.8-15.9c0.9,0.5,1.7,1.1,2.4,1.9c5.1,5.1,5.1,13.2,0,18.3
			c-5.1,5.1-13.2,5.1-18.3,0c-0.7-0.7-1.3-1.5-1.9-2.4C473.8,732.6,480.4,732,484.7,727.7z"/>
		<g>
			<path class="st4" d="M479.8,737.2c-3.8,0-7.5-1.5-10.2-4.2c-2.7-2.7-4.2-6.3-4.2-10.2s1.5-7.5,4.2-10.2l0,0
				c2.7-2.7,6.3-4.2,10.2-4.2c3.8,0,7.5,1.5,10.2,4.2c2.7,2.7,4.2,6.3,4.2,10.2c0,3.8-1.5,7.5-4.2,10.2
				C487.3,735.7,483.6,737.2,479.8,737.2z M479.8,711.3c-3.1,0-5.9,1.2-8.1,3.4c0,0,0,0,0,0c-2.2,2.2-3.4,5-3.4,8.1
				c0,3.1,1.2,5.9,3.4,8.1c2.2,2.2,5.1,3.4,8.1,3.4c3.1,0,5.9-1.2,8.1-3.4c2.2-2.2,3.4-5,3.4-8.1c0-3.1-1.2-5.9-3.4-8.1
				C485.7,712.5,482.9,711.3,479.8,711.3z M470.6,713.7L470.6,713.7L470.6,713.7z"/>
		</g>
	</g>
	<g>
		<g>
			<path class="st5" d="M644.3,641.2c0,4.5-3.2,6.4-7.1,4.1L556,598.4c-3.9-2.3-7.1-7.8-7.1-12.3l0-133.3c0-4.5,3.2-6.3,7.1-4.1
				l81.2,46.9c3.9,2.3,7.1,7.8,7.1,12.3L644.3,641.2z"/>
			<path class="st4" d="M640.3,647.6c-1.2,0-2.5-0.4-3.9-1.2l-81.2-46.9c-4.4-2.5-7.8-8.4-7.8-13.5l0-133.3c0-2.7,1-4.7,2.8-5.8
				c1.8-1,4-0.9,6.4,0.5l81.2,46.9c4.4,2.5,7.8,8.4,7.8,13.5l0,133.3l0,0c0,2.7-1,4.7-2.8,5.8C642.1,647.4,641.3,647.6,640.3,647.6z
				 M552.8,449.1c-0.4,0-0.8,0.1-1.2,0.3c-0.9,0.5-1.4,1.8-1.4,3.4l0,133.3c0,4,2.9,9.1,6.4,11.1l81.2,46.9c1.4,0.8,2.8,1,3.7,0.5
				c0.9-0.5,1.4-1.8,1.4-3.4l0-133.3c0-4-2.9-9.1-6.4-11.1l-81.2-46.9C554.4,449.4,553.5,449.1,552.8,449.1z"/>
		</g>
		<g>
			<path class="st1" d="M630.5,607.8c0,1.1-0.8,1.5-1.7,1l-64.3-37.1c-0.9-0.5-1.7-1.9-1.7-2.9l0,0c0-1.1,0.8-1.5,1.7-1l64.3,37.1
				C629.7,605.4,630.4,606.7,630.5,607.8L630.5,607.8z M618.6,616.6c0,1.1-0.8,1.5-1.7,1l-52.5-30.3c-0.9-0.5-1.7-1.9-1.7-2.9l0,0
				c0-1.1,0.8-1.5,1.7-1l52.5,30.3C617.9,614.2,618.6,615.6,618.6,616.6L618.6,616.6z M606.8,602c0-1.1-0.8-2.4-1.7-2.9l-40.7-23.5
				c-0.9-0.5-1.7-0.1-1.7,1l0,0c0,1.1,0.8,2.4,1.7,2.9l40.7,23.5C606,603.5,606.8,603,606.8,602L606.8,602z M630.4,580.3
				c0,1.1-0.8,1.5-1.7,1l-64.3-37.1c-0.9-0.5-1.7-1.9-1.7-2.9l0,0c0-1.1,0.8-1.5,1.7-1l64.3,37.1
				C629.7,577.9,630.4,579.2,630.4,580.3L630.4,580.3z M618.6,589.2c0,1.1-0.8,1.5-1.7,1l-52.5-30.3c-0.9-0.5-1.7-1.9-1.7-2.9l0,0
				c0-1.1,0.8-1.5,1.7-1l52.5,30.3C617.9,586.7,618.6,588.1,618.6,589.2L618.6,589.2z M606.8,574.5c0-1.1-0.8-2.4-1.7-2.9L564.4,548
				c-0.9-0.5-1.7-0.1-1.7,1l0,0c0,1.1,0.8,2.4,1.7,3l40.7,23.5C606,576,606.8,575.6,606.8,574.5L606.8,574.5z M596.6,493
				c-11.9-6.9-21.6-1.3-21.6,12.4c0,13.8,9.7,30.5,21.6,37.4c11.9,6.9,21.6,1.3,21.6-12.4l-21.6-12.5L596.6,493z"/>
		</g>
		<path class="st0" d="M601.3,490.3v24.9l21.6,12.5C622.9,513.9,613.2,497.2,601.3,490.3z"/>
	</g>
</g>
</svg>
